<svg id="Capa_1" enable-background="new 0 0 484.198 484.198" height="100" viewBox="0 0 484.198 484.198" width="100" xmlns="http://www.w3.org/2000/svg"><g><path d="m12.908 173.858h455.767v273.392c0 5.57-4.515 10.085-10.085 10.085h-435.591c-5.57 0-10.085-4.515-10.085-10.085v-273.392z" fill="#575b6d"/><path d="m12.908 173.858h455.767v9.979h-455.767z" fill="#414451"/><path d="m40.359 120.455-35.429 3.543-4.44-44.286c.188-.83.53-1.618 1.01-2.321z" fill="#475f6c"/><path d="m72.162 67.07 41.523 46.151-27.629 2.716-41.522-46.151z" fill="#575b6d"/><path d="m187.146 105.876-27.469 2.716-41.682-46.152 27.469-2.716z" fill="#575b6d"/><path d="m260.767 98.69-27.628 2.716-41.682-46.152 27.628-2.716z" fill="#575b6d"/><path d="m292.547 45.352 41.682 46.152-27.47 2.716-41.681-46.152z" fill="#575b6d"/><g fill="#eeefee"><path d="m86.056 115.896-15.234 1.512-30.469 3.029-38.841-43.105c.885-1.627 2.261-2.932 3.932-3.732l39.042-3.832 26.33 29.252z"/><path d="m159.671 108.627-45.933 4.529-41.617-46.128 45.927-4.529z"/><path d="m233.091 101.382-45.927 4.529-41.617-46.122 45.927-4.529z"/><path d="m306.677 94.125-45.928 4.529-41.622-46.122 45.933-4.535z"/><path d="m380.103 86.88-45.933 4.535-41.617-46.128 45.927-4.529z"/><path d="m453.682 79.623-45.927 4.529-41.617-46.122 45.927-4.529z"/><path d="m479.291 26.864 4.907 49.748-3.017.301-41.623-46.128z"/></g><path d="m366.168 38.006 41.522 46.152-27.629 2.716-41.522-46.152z" fill="#575b6d"/><path d="m481.151 76.972-27.469 2.716-41.681-46.152 27.628-2.716z" fill="#575b6d"/><path d="m481.612 123.862v50.037h-471.521c-3.313.048-6.425-1.585-8.267-4.34-1.212-1.668-1.851-3.684-1.819-5.745v-39.952z" fill="#575b6d"/><path d="m81.622 123.862-10.794 14.626-26.129 35.429h-34.602c-3.313.048-6.425-1.585-8.267-4.34l33.793-45.697z" fill="#eeefee"/><path d="m155.514 123.868h-46.151l-36.894 49.99h46.152z" fill="#eeefee"/><path d="m229.295 123.868h-46.152l-36.893 49.99h46.152z" fill="#eeefee"/><path d="m303.234 123.868h-46.151l-36.894 49.99h46.152z" fill="#eeefee"/><path d="m377.015 123.868h-46.152l-36.893 49.99h46.152z" fill="#eeefee"/><path d="m450.954 123.868h-46.151l-36.888 49.99h46.152z" fill="#eeefee"/><path d="m481.618 173.858v-49.99h-3.035l-36.887 49.99z" fill="#eeefee"/><path d="m70.822 67.07v106.829h-60.731c-3.313.048-6.425-1.585-8.267-4.34-1.212-1.668-1.851-3.684-1.819-5.745v-81.209c-.041-1.009.132-2.015.508-2.952.188-.83.53-1.618 1.01-2.321.886-1.627 2.262-2.932 3.933-3.732 1.153-.625 2.424-1.003 3.732-1.11z" fill="#dbd8dd"/><circle cx="33.262" cy="103.071" fill="#475f6c" r="11.272"/><circle cx="33.262" cy="144.776" fill="#475f6c" r="11.272"/><path d="m59.136 235.728h363.316v12.973h-363.316z" fill="#eeefee"/><path d="m59.136 309.136h363.316v12.973h-363.316z" fill="#eeefee"/><path d="m108.902 319.948h12.973v85.171h-12.973z" fill="#eeefee"/><path d="m234.302 319.948h12.973v85.171h-12.973z" fill="#eeefee"/><path d="m359.708 319.948h12.973v85.171h-12.973z" fill="#eeefee"/></g></svg>